<svg xmlns="http://www.w3.org/2000/svg" viewBox="0 0 96 96" id="binary-code">
  <g>
    <g>
      <circle cx="67.96" cy="68.21" r="24.04" fill="#e1f2fb"></circle>
      <path fill="#192965" d="M32,70.21H8a6,6,0,0,1-6-6V18.69a6,6,0,0,1,6-6,2,2,0,0,1,0,4,2,2,0,0,0-2,2V64.21a2,2,0,0,0,2,2H32a2,2,0,1,1,0,4Z"></path>
      <path fill="#40e0d0" d="M55.68,80H40.32a2,2,0,0,1-2-2V68.21a2,2,0,0,1,2-2H55.68a2,2,0,0,1,2,2V78A2,2,0,0,1,55.68,80ZM42.32,76H53.68V70.21H42.32Z"></path>
      <path fill="#40e0d0" d="M60.68,94H35.32a2,2,0,0,1-1.64-.85,2,2,0,0,1-.24-1.82l5-14A2,2,0,0,1,40.32,76H55.68a2,2,0,0,1,1.88,1.33l1.87,5.22a2,2,0,1,1-3.76,1.35L54.27,80H41.73L38.16,90H60.68a2,2,0,1,1,0,4Z"></path>
      <path fill="#192965" d="M88,70.21H40.32a2,2,0,0,1,0-4H88a2,2,0,0,0,2-2V18.69a2,2,0,0,0-2-2,2,2,0,1,1,0-4,6,6,0,0,1,6,6V64.21A6,6,0,0,1,88,70.21Z"></path>
      <path fill="#192965" d="M88,70.21H40.32a2,2,0,0,1,0-4H88a2,2,0,0,0,2-2V56H13.49a2,2,0,1,1,0-4H92a2,2,0,0,1,2,2V64.21A6,6,0,0,1,88,70.21Z"></path>
      <path fill="#192965" d="M32,70.21H8a6,6,0,0,1-6-6V54a2,2,0,0,1,4,0V64.21a2,2,0,0,0,2,2H32a2,2,0,1,1,0,4Z"></path>
      <path fill="#40e0d0" d="M75.06,94H22.86a2,2,0,0,1,0-4h52.2a2,2,0,0,1,0,4Z"></path>
      <path fill="#192965" d="M16.35 49a2 2 0 01-2-2V41.41a2 2 0 01-2.11-3.28l2.7-2.7A2 2 0 0117.12 35a2 2 0 011.23 1.85V47A2 2 0 0116.35 49zM38.35 49a2 2 0 01-2-2V41.41a2 2 0 01-2.11-3.28l2.7-2.7A2 2 0 0139.12 35a2 2 0 011.23 1.85V47A2 2 0 0138.35 49zM74.35 49a2 2 0 01-2-2V41.41a2 2 0 01-2.11-3.28l2.7-2.7A2 2 0 0175.12 35a2 2 0 011.23 1.85V47A2 2 0 0174.35 49zM82.35 49a2 2 0 01-2-2V41.41a2 2 0 01-2.11-3.28l2.7-2.7A2 2 0 0183.12 35a2 2 0 011.23 1.85V47A2 2 0 0182.35 49zM28.17 49H24.45a4.05 4.05 0 01-4.1-4V39a4.06 4.06 0 014.1-4h3.72a4.06 4.06 0 014.1 4v6A4.05 4.05 0 0128.17 49zm-3.82-4a.31.31 0 00.1 0h3.72a.14.14 0 00.11 0V39.06s0 0-.1 0H24.45a.14.14 0 00-.1 0V45zM50.17 49H46.45a4.05 4.05 0 01-4.1-4V39a4.06 4.06 0 014.1-4h3.72a4.06 4.06 0 014.1 4v6A4.05 4.05 0 0150.17 49zm-3.82-4a.31.31 0 00.1 0h3.72a.14.14 0 00.11 0V39.06s0 0-.1 0H46.45a.14.14 0 00-.1 0V45zM64.17 49H60.45a4.05 4.05 0 01-4.1-4V39a4.06 4.06 0 014.1-4h3.72a4.06 4.06 0 014.1 4v6A4.05 4.05 0 0164.17 49zm-3.82-4a.31.31 0 00.1 0h3.72a.14.14 0 00.11 0V39.06s0 0-.1 0H60.45a.14.14 0 00-.1 0V45z"></path>
      <path fill="#40e0d0" d="M19.58,25.51a2,2,0,0,1-1.41-3.41l2.47-2.47A2,2,0,0,1,22.05,19h6.52a2,2,0,0,1,0,4H22.88L21,24.92A2,2,0,0,1,19.58,25.51Z"></path>
      <path fill="#40e0d0" d="M17.06 31.6A5.57 5.57 0 1121 22.11 5.42 5.42 0 0122.63 26 5.58 5.58 0 0117.06 31.6zm0-7.14A1.57 1.57 0 1018.63 26a1.54 1.54 0 00-.45-1.1A1.62 1.62 0 0017.06 24.46zM34 16H22.05a2 2 0 01-1.41-.59l-2.47-2.47A2 2 0 1121 10.1L22.88 12H34a2 2 0 010 4z"></path>
      <path fill="#40e0d0" d="M17.06,14.56A5.57,5.57,0,1,1,22.63,9,5.44,5.44,0,0,1,21,12.93,5.52,5.52,0,0,1,17.06,14.56Zm0-7.14a1.57,1.57,0,1,0,0,3.14,1.6,1.6,0,0,0,1.1-.45,1.57,1.57,0,0,0-1.1-2.69Z"></path>
      <path fill="#192965" d="M13.49,63.11a2.58,2.58,0,0,1-.39,0,2.29,2.29,0,0,1-.37-.12,1.92,1.92,0,0,1-.35-.18,2.48,2.48,0,0,1-.3-.25,2,2,0,0,1-.59-1.41,1.81,1.81,0,0,1,0-.4,1.73,1.73,0,0,1,.11-.37,1.7,1.7,0,0,1,.19-.35,1.73,1.73,0,0,1,.25-.3,1.81,1.81,0,0,1,.3-.25,1.92,1.92,0,0,1,.35-.18,2.29,2.29,0,0,1,.37-.12,2,2,0,0,1,1.8.55,1.73,1.73,0,0,1,.25.3,1.7,1.7,0,0,1,.19.35,1.73,1.73,0,0,1,.11.37,1.81,1.81,0,0,1,0,.4,2,2,0,0,1-.59,1.41,2.48,2.48,0,0,1-.3.25,1.92,1.92,0,0,1-.35.18,2.29,2.29,0,0,1-.37.12A2.58,2.58,0,0,1,13.49,63.11Z"></path>
      <path fill="#40e0d0" d="M76.82 25.51a2 2 0 01-1.41-.59L73.52 23H67.43a2 2 0 010-4h6.92a2 2 0 011.41.59l2.47 2.47a2 2 0 01-1.41 3.41zM28.59 23a2 2 0 01-2-1.82c0-.25 0-.51 0-.77a8.2 8.2 0 01.52-2.9A8.46 8.46 0 0131 12.94a8.59 8.59 0 013.8-1 8.42 8.42 0 01-.1-1.33 8.55 8.55 0 0113.75-6.8A8.57 8.57 0 0161.7 13.58 2 2 0 1158 12.14a4.35 4.35 0 00.29-1.58A4.57 4.57 0 0053.68 6a4.5 4.5 0 00-3.61 1.78 2.07 2.07 0 01-3.18 0A4.5 4.5 0 0043.28 6a4.57 4.57 0 00-4.56 4.56 4.41 4.41 0 00.34 1.73 4.48 4.48 0 00.62 1.07 2 2 0 01-2.48 3 4.46 4.46 0 00-1.77-.46l-.23 0a4.76 4.76 0 00-2.26.56 4.5 4.5 0 00-2.09 2.47 4.32 4.32 0 00-.28 1.54c0 .14 0 .27 0 .41A2 2 0 0128.78 23zm6.46-7.19h0z"></path>
      <path fill="#40e0d0" d="M79.34 31.6A5.57 5.57 0 1184.91 26 5.58 5.58 0 0179.34 31.6zm0-7.14A1.57 1.57 0 1080.91 26 1.57 1.57 0 0079.34 24.46zM74.35 16.69H65.1a2 2 0 110-4h8.42l1.89-1.88a2 2 0 012.82 2.82L75.76 16.1A2 2 0 0174.35 16.69z"></path>
      <path fill="#40e0d0" d="M79.34 15.27A5.57 5.57 0 1184.91 9.7 5.58 5.58 0 0179.34 15.27zm0-7.14A1.57 1.57 0 1080.91 9.7 1.57 1.57 0 0079.34 8.13zM60.35 29H35.14a2 2 0 010-4H60.35a5.09 5.09 0 005.08-5.08 4.05 4.05 0 00-.13-1.12 5.14 5.14 0 00-1.55-2.64 2 2 0 012.7-3 9.08 9.08 0 012.72 4.59 7.85 7.85 0 01.26 2.13A9.09 9.09 0 0160.35 29z"></path>
      <path fill="#192965" d="M21.69 63.11a2.58 2.58 0 01-.39 0 2.78 2.78 0 01-.38-.12 2.21 2.21 0 01-.34-.18l-.31-.25a2 2 0 01-.58-1.41 1.81 1.81 0 010-.4 2.59 2.59 0 01.11-.37A2.37 2.37 0 0120 60a2.25 2.25 0 01.24-.3 2.42 2.42 0 01.31-.25 2.21 2.21 0 01.34-.18 2.78 2.78 0 01.38-.12 2 2 0 01.78 0 2.78 2.78 0 01.38.12 2.21 2.21 0 01.34.18 1.81 1.81 0 01.3.25 1.73 1.73 0 01.25.3 2.37 2.37 0 01.19.35 1.73 1.73 0 01.11.37 1.81 1.81 0 010 .4 2.09 2.09 0 01-.15.76 2.37 2.37 0 01-.19.35 1.42 1.42 0 01-.25.3 2.48 2.48 0 01-.3.25 2.21 2.21 0 01-.34.18 2.78 2.78 0 01-.38.12A2.58 2.58 0 0121.69 63.11zM29.89 63.11a2 2 0 01-1.41-.59 2 2 0 01-.59-1.41 1.81 1.81 0 010-.4 2.59 2.59 0 01.11-.37 2.37 2.37 0 01.19-.35 1.73 1.73 0 01.25-.3 2.07 2.07 0 012.82 0 1.73 1.73 0 01.25.3 2.37 2.37 0 01.19.35 2.59 2.59 0 01.11.37 1.81 1.81 0 010 .4 2 2 0 01-.59 1.41 2.48 2.48 0 01-.3.25 2.21 2.21 0 01-.34.18 2.4 2.4 0 01-.38.12A2.58 2.58 0 0129.89 63.11z"></path>
    </g>
  </g>
</svg>
